<svg width="20" height="20" viewBox="0 0 20 20" fill="none" xmlns="http://www.w3.org/2000/svg">
<path d="M4.02329 17.5L4.00663 17.5167L3.98913 17.5H2.49329C2.27397 17.4998 2.06371 17.4125 1.9087 17.2573C1.75369 17.1022 1.66663 16.8918 1.66663 16.6725V3.3275C1.66815 3.10865 1.75571 2.89918 1.91039 2.74435C2.06506 2.58951 2.27444 2.50175 2.49329 2.5H17.5066C17.9633 2.5 18.3333 2.87083 18.3333 3.3275V16.6725C18.3318 16.8914 18.2442 17.1008 18.0895 17.2557C17.9349 17.4105 17.7255 17.4983 17.5066 17.5H4.02329ZM16.6666 12.5V4.16667H3.33329V15.8333L11.6666 7.5L16.6666 12.5ZM16.6666 14.8567L11.6666 9.85667L5.68996 15.8333H16.6666V14.8567ZM6.66663 9.16667C6.2246 9.16667 5.80068 8.99107 5.48811 8.67851C5.17555 8.36595 4.99996 7.94203 4.99996 7.5C4.99996 7.05797 5.17555 6.63405 5.48811 6.32149C5.80068 6.00893 6.2246 5.83333 6.66663 5.83333C7.10865 5.83333 7.53258 6.00893 7.84514 6.32149C8.1577 6.63405 8.33329 7.05797 8.33329 7.5C8.33329 7.94203 8.1577 8.36595 7.84514 8.67851C7.53258 8.99107 7.10865 9.16667 6.66663 9.16667Z" fill="#A4AFB7"/>
</svg>
