<?xml version="1.0" encoding="UTF-8"?>
<svg width="19px" height="20px" viewBox="0 0 19 20" version="1.1" xmlns="http://www.w3.org/2000/svg" xmlns:xlink="http://www.w3.org/1999/xlink">
    <!-- Generator: Sketch 64 (93537) - https://sketch.com -->
    <title>Artboard</title>
    <desc>Created with Sketch.</desc>
    <g id="Artboard" stroke="none" stroke-width="1" fill="none" fill-rule="evenodd">
        <g id="preview" transform="translate(0.000000, 3.000000)" fill="#A4AFB7" fill-rule="nonzero">
            <path d="M9.49998,1.99998 C12.6583,1.99998 15.475,3.77498 16.85,6.58331 C15.475,9.39165 12.6583,11.1666 9.49998,11.1666 C6.34165,11.1666 3.52498,9.39165 2.14998,6.58331 C3.52498,3.77498 6.34165,1.99998 9.49998,1.99998 Z M9.49998,0.333313 C5.333313,0.333313 1.77498,2.92498 0.333313,6.58331 C1.77498,10.2416 5.333313,12.8333 9.49998,12.8333 C13.6666,12.8333 17.225,10.2416 18.6666,6.58331 C17.225,2.92498 13.6666,0.333313 9.49998,0.333313 Z M9.49998,4.49998 C10.65,4.49998 11.5833,5.43331 11.5833,6.58331 C11.5833,7.73331 10.65,8.66665 9.49998,8.66665 C8.34998,8.66665 7.41665,7.73331 7.41665,6.58331 C7.41665,5.43331 8.34998,4.49998 9.49998,4.49998 Z M9.49998,2.83331 C7.43331,2.83331 5.74998,4.51665 5.74998,6.58331 C5.74998,8.64998 7.43331,10.3333 9.49998,10.3333 C11.5666,10.3333 13.25,8.64998 13.25,6.58331 C13.25,4.51665 11.5666,2.83331 9.49998,2.83331 Z" id="Shape"></path>
        </g>
    </g>
</svg>