<svg width="20" height="20" viewBox="0 0 20 20" fill="none" xmlns="http://www.w3.org/2000/svg">
<path fill-rule="evenodd" clip-rule="evenodd" d="M18.5951 17.4159L15.0259 13.8475C16.0903 12.5198 16.6692 10.8684 16.6667 9.16669C16.6667 5.02669 13.3067 1.66669 9.16675 1.66669C5.02675 1.66669 1.66675 5.02669 1.66675 9.16669C1.66675 13.3067 5.02675 16.6667 9.16675 16.6667C10.8684 16.6691 12.5199 16.0902 13.8476 15.0259L17.4159 18.595L18.5951 17.4159ZM15.0001 9.16669C15.0025 10.6837 14.4118 12.1416 13.3542 13.2292L13.2292 13.3542C12.1417 14.4118 10.6838 15.0024 9.16675 15C5.94341 15 3.33341 12.3892 3.33341 9.16669C3.33341 5.94335 5.94341 3.33335 9.16675 3.33335C12.3892 3.33335 15.0001 5.94335 15.0001 9.16669Z" fill="#38474F"/>
</svg>
