<svg width="21" height="20" viewBox="0 0 21 20" fill="none" xmlns="http://www.w3.org/2000/svg">
<path d="M10.5 0.833313L18.4167 5.41665V14.5833L10.5 19.1666L2.58334 14.5833V5.41665L10.5 0.833313ZM10.5 2.75915L4.25001 6.37748V13.6225L10.5 17.2408L16.75 13.6225V6.37748L10.5 2.75915ZM10.5 13.3333C9.61595 13.3333 8.76811 12.9821 8.14299 12.357C7.51787 11.7319 7.16668 10.884 7.16668 9.99998C7.16668 9.11592 7.51787 8.26808 8.14299 7.64296C8.76811 7.01784 9.61595 6.66665 10.5 6.66665C11.3841 6.66665 12.2319 7.01784 12.857 7.64296C13.4822 8.26808 13.8333 9.11592 13.8333 9.99998C13.8333 10.884 13.4822 11.7319 12.857 12.357C12.2319 12.9821 11.3841 13.3333 10.5 13.3333ZM10.5 11.6666C10.942 11.6666 11.366 11.4911 11.6785 11.1785C11.9911 10.8659 12.1667 10.442 12.1667 9.99998C12.1667 9.55795 11.9911 9.13403 11.6785 8.82147C11.366 8.50891 10.942 8.33331 10.5 8.33331C10.058 8.33331 9.63406 8.50891 9.3215 8.82147C9.00894 9.13403 8.83334 9.55795 8.83334 9.99998C8.83334 10.442 9.00894 10.8659 9.3215 11.1785C9.63406 11.4911 10.058 11.6666 10.5 11.6666Z" fill="#A4AFB7"/>
</svg>
