<svg width="16" height="16" viewBox="0 0 16 16" fill="none" xmlns="http://www.w3.org/2000/svg">
<path d="M1.4673 6.56948C1.35466 6.48747 1.30651 6.34299 1.34741 6.2098L1.40069 6.04328C1.43965 5.91169 1.55676 5.81852 1.69374 5.81016L5.94963 5.47046L7.58138 1.54732C7.63612 1.40988 7.7735 1.32368 7.92105 1.33418H8.09422C8.23332 1.33122 8.35901 1.4168 8.40725 1.54732L10.0457 5.47046L14.3015 5.81016C14.4385 5.81852 14.5556 5.91169 14.5946 6.04328L14.6479 6.2098C14.6932 6.33879 14.6533 6.48234 14.548 6.56948L11.3377 9.327L12.3235 13.4633C12.3559 13.5957 12.3061 13.7347 12.1969 13.8163L12.0038 13.9229C11.8911 13.999 11.7435 13.999 11.6308 13.9229L8.00763 11.7249L4.36449 13.9429C4.25183 14.019 4.10418 14.019 3.99152 13.9429L3.845 13.843C3.7358 13.7613 3.68598 13.6223 3.71845 13.4899L4.67752 9.327L1.4673 6.56948Z" fill="#FAAD13"/>
</svg>
